<svg width="112" height="40" viewBox="0 0 112 40" fill="none" xmlns="http://www.w3.org/2000/svg">
<path fill-rule="evenodd" clip-rule="evenodd" d="M87.2687 21.879V22.4535V23.5748H92.2345V22.4563V22.1843V21.8457V21.4377V20.9631V20.1415C92.2327 19.9207 92.2332 19.6436 92.2338 19.3082C92.2341 19.1167 92.2345 18.9061 92.2345 18.6761L92.2066 6.62503H90.084L87.2687 6.70552V7.91285V8.19317V8.65945V9.48099V10.8104V18.6983V20.9131V21.879ZM92.0703 4.15209V0H87.4162V4.15209H92.0703ZM5.2773 19.3174V20.4192V21.2491V21.7903V22.1706V22.4509V23.5833L0 23.5694V22.4509V22.0928V21.5461V20.6718V19.3229V4.69624V3.36124V2.48142V1.93187V1.55996V0.441451H5.2773V1.55996V3.26688V4.71012V19.3174ZM26.9261 23.5721H22.016V22.4536V21.904V20.9548C22.016 20.7923 22.0176 20.5787 22.0197 20.316C22.0229 19.897 22.0271 19.3531 22.0271 18.6928V14.1688C22.0271 13.3667 22.0104 12.7089 21.977 12.1954C21.9437 11.682 21.888 11.2601 21.8157 10.9326C21.7406 10.6051 21.6404 10.3303 21.5097 10.1111C21.3789 9.89181 21.2343 9.7114 21.0757 9.56985C20.9171 9.4283 20.7363 9.32284 20.5332 9.25622C20.3302 9.18684 20.0687 9.15353 19.7515 9.15353C19.3203 9.15353 18.8752 9.28676 18.4106 9.5532C17.946 9.81965 17.5566 10.186 17.2394 10.6551C16.9223 11.1241 16.7637 11.6237 16.7637 12.1538L16.7888 18.7011C16.7888 19.361 16.7919 19.8857 16.7944 20.2902V20.2906V20.2909L16.7944 20.2923C16.7959 20.5452 16.7971 20.7509 16.7971 20.9132V21.904V22.4536V23.5721H11.8286V22.4536V21.879V20.9132C11.8286 20.7549 11.8315 20.5498 11.835 20.2966V20.2966V20.2966V20.2965V20.2965C11.8407 19.8885 11.8481 19.3556 11.8481 18.6928V11.7292C11.8481 11.2361 11.8413 10.8195 11.8357 10.478V10.478V10.4779V10.4779V10.4779V10.4779V10.4779V10.4778V10.4778V10.4778L11.8357 10.4776C11.8319 10.2407 11.8286 10.04 11.8286 9.87516V8.9204V8.31534V7.91568V6.70835L14.6189 6.62786H16.7582L16.5022 9.0675L16.7053 9.11745C17.4064 8.49575 18.0239 8.00727 18.5581 7.65201C19.0894 7.29675 19.6486 7.01365 20.23 6.80549C20.8142 6.59733 21.4262 6.49187 22.0716 6.49187C23.0008 6.49187 23.7714 6.62509 24.3806 6.89153C24.9926 7.15798 25.4878 7.54376 25.8662 8.05167C26.2445 8.55958 26.5171 9.18129 26.6813 9.91679C26.8454 10.6523 26.9261 11.5044 26.9261 12.4758V18.6789V20.0833V21.1186V21.7541V22.1705V22.4591V23.5721ZM46.1363 5.09059L46.1363 5.09069L46.1363 5.09076L46.1362 5.09085L46.1362 5.09091C46.0375 5.38061 45.9355 5.67988 45.8208 6.00071L41.6256 18.1184L38.2623 5.95075C38.1476 5.53309 38.0536 5.18388 37.9761 4.89588C37.9089 4.64609 37.8541 4.44235 37.8088 4.27992C37.7703 4.13942 37.7301 3.99024 37.6893 3.83907C37.627 3.608 37.5634 3.37229 37.5028 3.15585C37.4509 2.97027 37.414 2.8335 37.3787 2.7027L37.3787 2.7026L37.3786 2.7024L37.3784 2.70174L37.3784 2.70165L37.3784 2.70148L37.3783 2.70111C37.3361 2.54495 37.2962 2.39705 37.2358 2.18444C37.2053 2.07873 37.1945 2.03591 37.183 1.99023C37.1661 1.92318 37.1477 1.85 37.0633 1.56274L36.7517 0.444225H31.224L31.5133 1.41286C31.5733 1.61743 31.5924 1.67513 31.6061 1.71652L31.6061 1.71656L31.6061 1.71658L31.6062 1.71667L31.6062 1.71669C31.6211 1.76166 31.6297 1.78753 31.6775 1.9624C31.7384 2.18568 31.7866 2.34098 31.8389 2.5093L31.8389 2.50935L31.839 2.50956C31.875 2.62572 31.913 2.74809 31.9585 2.90329C32.0192 3.10997 32.0844 3.32383 32.1603 3.57243C32.2544 3.88132 32.365 4.24385 32.5037 4.71289L38.1093 23.6915H42.0318L49.1479 4.7795C49.464 3.93246 49.6949 3.32466 49.8557 2.90161L49.8557 2.90145L49.8558 2.90131L49.874 2.85333C49.9575 2.63084 50.0089 2.49446 50.0568 2.36741L50.0579 2.36457L50.0585 2.36309L50.0586 2.36275L50.0598 2.35952L50.0602 2.35851C50.1037 2.24323 50.1448 2.1342 50.2051 1.97351C50.2722 1.79358 50.2908 1.74473 50.303 1.71282C50.315 1.68124 50.3207 1.66626 50.3608 1.55719L50.7809 0.441451H47.7375L47.3536 1.55164L47.2918 1.73252L47.1756 2.07065L47.1593 2.11795C47.0224 2.51728 46.9128 2.83692 46.7388 3.33904C46.6674 3.54657 46.596 3.75356 46.5265 3.95496L46.5259 3.95672L46.5254 3.9583L46.5234 3.96395L46.5222 3.96742L46.5191 3.9764L46.5179 3.97998L46.5153 3.98769L46.5121 3.99685L46.5103 4.00197C46.4286 4.23898 46.3497 4.46764 46.277 4.67959C46.2302 4.81528 46.1836 4.95184 46.1363 5.09059ZM61.0046 21.3517L60.7487 21.2657C59.8195 22.1705 58.9182 22.8255 58.0391 23.2307C57.16 23.6387 56.2308 23.8413 55.246 23.8413C54.2724 23.8413 53.4267 23.6637 52.7061 23.3084C51.9856 22.9531 51.4432 22.4591 51.0759 21.8263C50.7087 21.1935 50.5251 20.4663 50.5251 19.6392C50.5251 17.9795 51.343 16.6723 52.9788 15.7175C54.6145 14.7627 57.0988 14.1605 60.426 13.9135V12.3037C60.426 11.2518 60.3063 10.4441 60.0699 9.87238C59.8334 9.30341 59.5274 8.90097 59.1518 8.6706C58.7791 8.44024 58.3312 8.32367 57.811 8.32367C57.2907 8.32367 56.8401 8.41249 56.4617 8.59567C56.0834 8.77607 55.7384 9.11746 55.4352 9.61981C55.1292 10.1222 54.9039 10.8216 54.7564 11.7125H51.5461V8.62897C52.5865 8.16547 53.4545 7.81021 54.1444 7.56042C54.8343 7.3134 55.5159 7.10524 56.1919 6.94149C56.8651 6.77774 57.4688 6.66117 58.0001 6.59456C58.5315 6.52795 59.0656 6.49187 59.597 6.49187C60.9657 6.49187 62.0617 6.67227 62.8824 7.03585C63.7031 7.39666 64.3179 7.98506 64.724 8.79827C65.133 9.61149 65.3361 10.7355 65.3361 12.1705L65.375 18.7705V20.5052V21.4488V21.8874V22.176V22.4563V23.5748H60.8516L61.0046 21.3517ZM60.4454 15.5732C58.6901 15.6176 57.3909 15.9451 56.548 16.5557C55.7051 17.1663 55.2822 18.06 55.2822 19.234C55.2822 19.9362 55.4742 20.4691 55.8608 20.8355C56.2447 21.2018 56.7789 21.385 57.4577 21.385C57.9779 21.385 58.4703 21.2462 58.9349 20.9687C59.3994 20.6911 59.7667 20.322 60.0393 19.8585C60.3119 19.395 60.4482 18.9037 60.4482 18.3847V15.5732H60.4454ZM107.374 21.2657L107.629 21.3517L107.476 23.5748H112V22.4563V22.176V21.8874V21.4488V20.5052V18.7705L111.961 12.1705C111.961 10.7355 111.758 9.61149 111.349 8.79827C110.943 7.98506 110.328 7.39666 109.507 7.03585C108.687 6.67227 107.591 6.49187 106.222 6.49187C105.69 6.49187 105.156 6.52795 104.625 6.59456C104.094 6.66117 103.49 6.77774 102.817 6.94149C102.141 7.10524 101.459 7.3134 100.769 7.56042C100.079 7.81021 99.2114 8.16547 98.171 8.62897V11.7125H101.381C101.529 10.8216 101.754 10.1222 102.06 9.61981C102.363 9.11746 102.708 8.77607 103.087 8.59567C103.465 8.41249 103.916 8.32367 104.436 8.32367C104.956 8.32367 105.404 8.44024 105.777 8.6706C106.152 8.90097 106.458 9.30341 106.695 9.87238C106.931 10.4441 107.051 11.2518 107.051 12.3037V13.9135C103.724 14.1605 101.239 14.7627 99.6036 15.7175C97.9679 16.6723 97.15 17.9795 97.15 19.6392C97.15 20.4663 97.3336 21.1935 97.7008 21.8263C98.068 22.4591 98.6105 22.9531 99.331 23.3084C100.052 23.6637 100.897 23.8413 101.871 23.8413C102.856 23.8413 103.785 23.6387 104.664 23.2307C105.543 22.8255 106.444 22.1705 107.374 21.2657ZM103.173 16.5557C104.016 15.9451 105.315 15.6176 107.07 15.5732H107.073V18.3847C107.073 18.9037 106.937 19.395 106.664 19.8585C106.392 20.322 106.024 20.6911 105.56 20.9687C105.095 21.2462 104.603 21.385 104.083 21.385C103.404 21.385 102.87 21.2018 102.486 20.8355C102.099 20.4691 101.907 19.9362 101.907 19.234C101.907 18.06 102.33 17.1663 103.173 16.5557ZM75.9185 9.18401L76.1383 9.23397C76.9645 8.26256 77.813 7.56314 78.6865 7.13294C79.5573 6.70552 80.5031 6.48904 81.5241 6.48904C82.214 6.48904 82.9401 6.56397 83.6996 6.7083V11.385H80.6255C80.4336 10.7299 80.1804 10.2276 79.8689 9.87788C79.5573 9.52817 79.14 9.35331 78.6198 9.35331C78.3694 9.35331 78.0968 9.42825 77.7963 9.5809C77.4959 9.73355 77.2177 9.94726 76.9645 10.2248C76.7086 10.5024 76.5278 10.7827 76.4221 11.0713C76.3136 11.36 76.244 11.6514 76.2106 11.9456C76.1773 12.2398 76.1606 12.6811 76.1606 13.2667V18.6733V20.9353V21.9262V22.559V23.5692H71.1976V22.4507V21.8762V20.9076V18.7066V11.7291C71.1976 10.8937 71.1976 10.2859 71.2088 9.86955C71.2156 9.62124 71.2098 9.43105 71.2043 9.25333V9.25317V9.25301V9.25283V9.25264V9.25244V9.25227V9.25213V9.25201V9.25191V9.25182C71.2009 9.14205 71.1976 9.037 71.1976 8.92589V8.31251V7.87677V6.7083L74.0185 6.62503H76.1578L75.9185 9.18401ZM92.0396 38.5068C92.2226 38.5124 92.2903 38.5105 92.3562 38.5087C92.3885 38.5077 92.4204 38.5068 92.4652 38.5068H92.774H93.0995H93.7867L93.6921 40H88.0837V39.5976C88.2562 39.2063 88.5038 38.7816 88.8265 38.3209C89.152 37.8602 89.547 37.3578 90.0116 36.811C90.4511 36.2948 90.7878 35.8674 91.0186 35.5343C91.2495 35.2013 91.422 34.8849 91.5361 34.5879C91.6501 34.2909 91.7086 33.9828 91.7086 33.6664C91.7086 33.2196 91.6084 32.8671 91.4081 32.6118C91.2078 32.3564 90.9352 32.2315 90.5874 32.2315C90.262 32.2315 89.9893 32.3481 89.7751 32.5757C89.5609 32.806 89.4051 33.1696 89.3078 33.6664H88.2061V32.226C88.7041 32.0261 89.0936 31.8874 89.3745 31.8069C89.6555 31.7264 89.9337 31.6681 90.2091 31.6265C90.4845 31.5848 90.7822 31.5654 91.1049 31.5654C91.7058 31.5654 92.1954 31.6459 92.5737 31.8069C92.9521 31.9679 93.2275 32.1843 93.3972 32.4619C93.5669 32.7367 93.6503 33.0586 93.6503 33.425C93.6503 33.7469 93.5891 34.0467 93.4695 34.3214C93.3499 34.5962 93.1413 34.9154 92.8464 35.2679C92.5515 35.6204 92.0507 36.1283 91.3497 36.7888C91.0353 37.0941 90.7404 37.4022 90.4678 37.7131C90.1952 38.0239 89.9921 38.2682 89.8614 38.443V38.5041L92.0396 38.5068ZM68.3873 38.5087C68.3214 38.5105 68.2537 38.5124 68.0708 38.5068L65.8925 38.5041V38.443C66.0233 38.2682 66.2263 38.0239 66.499 37.7131C66.7716 37.4022 67.0665 37.0941 67.3808 36.7888C68.0819 36.1283 68.5826 35.6204 68.8775 35.2679C69.1724 34.9154 69.381 34.599 69.5007 34.3214C69.6203 34.0467 69.6815 33.7469 69.6815 33.425C69.6815 33.0586 69.598 32.7367 69.4283 32.4619C69.2586 32.1843 68.9832 31.9679 68.6049 31.8069C68.2265 31.6459 67.7369 31.5654 67.136 31.5654C66.8133 31.5654 66.5157 31.5848 66.2403 31.6265C65.9648 31.6681 65.6867 31.7264 65.4057 31.8069C65.1247 31.8874 64.7352 32.0261 64.2373 32.226V33.6664H65.3389C65.4363 33.1696 65.5921 32.806 65.8063 32.5757C66.0205 32.3481 66.2931 32.2315 66.6186 32.2315C66.9663 32.2315 67.239 32.3564 67.4393 32.6118C67.6396 32.8671 67.7397 33.2196 67.7397 33.6664C67.7397 33.9828 67.6813 34.2909 67.5672 34.5879C67.4532 34.8849 67.2807 35.2013 67.0498 35.5343C66.8189 35.8674 66.4823 36.2948 66.0427 36.811C65.5782 37.3578 65.1831 37.8602 64.8576 38.3209C64.5349 38.7816 64.2874 39.2063 64.1149 39.5976V40H69.7232L69.8178 38.5068H69.1307H68.8052H68.4964C68.4516 38.5068 68.4197 38.5077 68.3873 38.5087ZM44.1016 38.5068C44.2846 38.5124 44.3522 38.5105 44.4182 38.5087C44.4505 38.5077 44.4824 38.5068 44.5272 38.5068H44.836H45.1615H45.8486L45.7541 40H40.1429V39.5976C40.3154 39.2063 40.563 38.7816 40.8857 38.3209C41.2112 37.8602 41.6062 37.3578 42.0708 36.811C42.5103 36.2948 42.847 35.8674 43.0779 35.5343C43.3088 35.2013 43.4812 34.8849 43.5953 34.5879C43.7094 34.2909 43.7678 33.9828 43.7678 33.6664C43.7678 33.2196 43.6676 32.8671 43.4673 32.6118C43.267 32.3564 42.9944 32.2315 42.6467 32.2315C42.3212 32.2315 42.0485 32.3481 41.8343 32.5757C41.6201 32.806 41.4643 33.1696 41.367 33.6664H40.2653V32.226C40.7633 32.0261 41.1528 31.8874 41.4337 31.8069C41.7147 31.7264 41.9929 31.6681 42.2683 31.6265C42.5437 31.5848 42.8414 31.5654 43.1641 31.5654C43.765 31.5654 44.2546 31.6459 44.6329 31.8069C45.0113 31.9679 45.2867 32.1843 45.4564 32.4619C45.6261 32.7367 45.7095 33.0586 45.7095 33.425C45.7095 33.7469 45.6483 34.0467 45.5287 34.3214C45.4091 34.5962 45.2005 34.9154 44.9056 35.2679C44.6107 35.6231 44.1099 36.1283 43.4089 36.7888C43.0946 37.0941 42.7997 37.4022 42.527 37.7131C42.2544 38.0239 42.0513 38.2682 41.9206 38.443V38.5041L44.1016 38.5068ZM20.4466 38.5087C20.3806 38.5105 20.3129 38.5124 20.13 38.5068L17.9517 38.5041V38.443C18.0825 38.2682 18.2856 38.0239 18.5582 37.7131C18.8308 37.4022 19.1257 37.0941 19.4401 36.7888C20.1411 36.1283 20.6419 35.6204 20.9367 35.2679C21.2316 34.9154 21.4403 34.5962 21.5599 34.3214C21.6795 34.0467 21.7407 33.7469 21.7407 33.425C21.7407 33.0586 21.6573 32.7367 21.4876 32.4619C21.3179 32.1843 21.0425 31.9679 20.6641 31.8069C20.2858 31.6459 19.7962 31.5654 19.1953 31.5654C18.8726 31.5654 18.5749 31.5848 18.2995 31.6265C18.0241 31.6681 17.7459 31.7264 17.4649 31.8069C17.1839 31.8874 16.7945 32.0261 16.2965 32.226V33.6664H17.3981C17.4955 33.1696 17.6513 32.806 17.8655 32.5757C18.0797 32.3481 18.3523 32.2315 18.6778 32.2315C19.0256 32.2315 19.2982 32.3564 19.4985 32.6118C19.6988 32.8671 19.7989 33.2196 19.7989 33.6664C19.7989 33.9828 19.7405 34.2909 19.6265 34.5879C19.5124 34.8849 19.3399 35.2013 19.109 35.5343C18.8781 35.8674 18.5415 36.2948 18.102 36.811C17.6374 37.3578 17.2424 37.8602 16.9169 38.3209C16.5942 38.7816 16.3466 39.2063 16.1741 39.5976V40H21.7824L21.877 38.5068H21.1899H20.8644H20.5556C20.5108 38.5068 20.4789 38.5077 20.4466 38.5087Z" fill="white"/>
</svg>
