<svg width="44" height="44" viewBox="0 0 44 44" fill="none" xmlns="http://www.w3.org/2000/svg">
<rect width="44" height="44" rx="4" fill="#752EE5"/>
<path d="M28.2477 16.2002C27.0825 15.655 25.8367 15.2588 24.5342 15.0332C24.3742 15.3224 24.1873 15.7114 24.0585 16.0208C22.6739 15.8126 21.302 15.8126 19.9429 16.0208C19.814 15.7114 19.6229 15.3224 19.4615 15.0332C18.1576 15.2588 16.9103 15.6565 15.7451 16.203C13.395 19.7544 12.7579 23.2176 13.0764 26.6317C14.6352 27.7957 16.1458 28.5028 17.6309 28.9655C17.9976 28.4609 18.3247 27.9244 18.6064 27.359C18.0698 27.1551 17.5559 26.9035 17.0703 26.6114C17.1991 26.516 17.3251 26.4162 17.4469 26.3135C20.4086 27.6988 23.6267 27.6988 26.5531 26.3135C26.6762 26.4162 26.8022 26.516 26.9296 26.6114C26.4426 26.9049 25.9273 27.1565 25.3907 27.3605C25.6724 27.9244 25.9981 28.4623 26.3662 28.967C27.8527 28.5042 29.3647 27.7971 30.9235 26.6317C31.2973 22.6739 30.285 19.2425 28.2477 16.2002ZM19.0099 24.5321C18.1208 24.5321 17.3917 23.702 17.3917 22.6913C17.3917 21.6805 18.1052 20.8491 19.0099 20.8491C19.9146 20.8491 20.6437 21.6791 20.6281 22.6913C20.6295 23.702 19.9146 24.5321 19.0099 24.5321ZM24.9901 24.5321C24.101 24.5321 23.3718 23.702 23.3718 22.6913C23.3718 21.6805 24.0854 20.8491 24.9901 20.8491C25.8947 20.8491 26.6238 21.6791 26.6083 22.6913C26.6083 23.702 25.8947 24.5321 24.9901 24.5321Z" fill="white"/>
</svg>
