<svg width="18" height="18" viewBox="0 0 18 18" fill="none" xmlns="http://www.w3.org/2000/svg">
<path d="M15.2477 3.38062C14.0825 2.85244 12.8367 2.46857 11.5342 2.25C11.3742 2.53021 11.1873 2.90709 11.0585 3.2069C9.67387 3.00515 8.30201 3.00515 6.94287 3.2069C6.81404 2.90709 6.62292 2.53021 6.46152 2.25C5.15761 2.46857 3.91032 2.85385 2.74514 3.38342C0.394982 6.82427 -0.242108 10.1797 0.0764375 13.4874C1.63519 14.6152 3.14581 15.3003 4.63093 15.7486C4.99762 15.2597 5.32465 14.7399 5.60638 14.1921C5.06981 13.9946 4.5559 13.7508 4.07031 13.4678C4.19913 13.3753 4.32514 13.2786 4.44689 13.1792C7.40865 14.5213 10.6267 14.5213 13.5531 13.1792C13.6762 13.2786 13.8022 13.3753 13.9296 13.4678C13.4426 13.7522 12.9273 13.996 12.3907 14.1935C12.6724 14.7399 12.9981 15.2611 13.3662 15.75C14.8527 15.3017 16.3647 14.6166 17.9235 13.4874C18.2973 9.65288 17.285 6.32831 15.2477 3.38062ZM6.00988 11.4532C5.12079 11.4532 4.39166 10.649 4.39166 9.66969C4.39166 8.69039 5.10522 7.88482 6.00988 7.88482C6.91457 7.88482 7.64367 8.68898 7.6281 9.66969C7.62951 10.649 6.91457 11.4532 6.00988 11.4532ZM11.9901 11.4532C11.101 11.4532 10.3718 10.649 10.3718 9.66969C10.3718 8.69039 11.0854 7.88482 11.9901 7.88482C12.8947 7.88482 13.6238 8.68898 13.6083 9.66969C13.6083 10.649 12.8947 11.4532 11.9901 11.4532Z" fill="#2F125C"/>
</svg>
