<svg width="44" height="44" viewBox="0 0 44 44" fill="none" xmlns="http://www.w3.org/2000/svg">
<rect width="44" height="44" rx="4" fill="#fff"/>
<path d="M28.1831 18.5642C28.2469 18.5578 28.3101 18.5503 28.3727 18.5418C28.2675 18.6287 28.1589 18.7118 28.0466 18.7904L27.8333 18.9397V19.2V19.2008V19.2016V19.2023V19.2031V19.2039V19.2047V19.2055V19.2063V19.207V19.2078V19.2086V19.2094V19.2102V19.2109V19.2117V19.2125V19.2133V19.2141V19.2148V19.2156V19.2164V19.2172V19.218V19.2188V19.2195V19.2203V19.2211V19.2219V19.2227V19.2234V19.2242V19.225V19.2258V19.2266V19.2273V19.2281V19.2289V19.2297V19.2305V19.2313V19.232V19.2328V19.2336V19.2344V19.2352V19.2359V19.2367V19.2375V19.2383V19.2391V19.2398V19.2406V19.2414V19.2422V19.243V19.2438V19.2445V19.2453V19.2461V19.2469V19.2477V19.2484V19.2492V19.25V19.2508V19.2516V19.2523V19.2531V19.2539V19.2547V19.2555V19.2563V19.257V19.2578V19.2586V19.2594V19.2602V19.2609V19.2617V19.2625V19.2633V19.2641V19.2648V19.2656V19.2664V19.2672V19.268V19.2688V19.2695V19.2703V19.2711V19.2719V19.2727V19.2734V19.2742V19.275V19.2758V19.2766V19.2773V19.2781V19.2789V19.2797V19.2805V19.2813V19.282V19.2828V19.2836V19.2844V19.2852V19.2859V19.2867V19.2875V19.2883V19.2891V19.2898V19.2906V19.2914V19.2922V19.293V19.2938V19.2945V19.2953V19.2961V19.2969V19.2977V19.2984V19.2992V19.3V19.3008V19.3016V19.3023V19.3031V19.3039V19.3047V19.3055V19.3063V19.307V19.3078V19.3086V19.3094V19.3102V19.3109V19.3117V19.3125V19.3133V19.3141V19.3148V19.3156V19.3164V19.3172V19.318V19.3188V19.3195V19.3203V19.3211V19.3219V19.3227V19.3234V19.3242V19.325V19.3258V19.3266V19.3273V19.3281V19.3289V19.3297V19.3305V19.3313V19.332V19.3328V19.3336V19.3344V19.3352V19.3359V19.3367V19.3375V19.3383V19.3391V19.3398V19.3406V19.3414V19.3422V19.343V19.3438V19.3445V19.3453V19.3461V19.3469V19.3477V19.3484V19.3492V19.35V19.3508V19.3516V19.3523V19.3531V19.3539V19.3547V19.3555V19.3563V19.357V19.3578V19.3586V19.3594V19.3602V19.3609V19.3617V19.3625V19.3633V19.3641V19.3648V19.3656V19.3664V19.3672V19.368V19.3688V19.3695V19.3703V19.3711V19.3719V19.3727V19.3734V19.3742V19.375V19.3758V19.3766V19.3773V19.3781V19.3789V19.3797V19.3805V19.3813V19.382V19.3828V19.3836V19.3844V19.3852V19.3859V19.3867V19.3875V19.3883V19.3891V19.3898V19.3906V19.3914V19.3922V19.393V19.3937V19.3945V19.3953V19.3961V19.3969V19.3977V19.3984V19.3992V19.4V19.4008V19.4016V19.4023V19.4031V19.4039V19.4047V19.4055V19.4062V19.407V19.4078V19.4086V19.4094V19.4102V19.4109V19.4117V19.4125V19.4133V19.4141V19.4148V19.4156V19.4164V19.4172V19.418V19.4188V19.4195V19.4203V19.4211V19.4219V19.4227V19.4234V19.4242V19.425V19.4258V19.4266V19.4273V19.4281V19.4289V19.4297V19.4305V19.4312V19.432V19.4328V19.4336V19.4344V19.4352V19.4359V19.4367V19.4375V19.4383V19.4391V19.4398V19.4406V19.4414V19.4422V19.443V19.4437V19.4445V19.4453V19.4461V19.4469V19.4477V19.4484V19.4492V19.45V19.4508V19.4516V19.4523V19.4531V19.4539V19.4547V19.4555V19.4562V19.457V19.4578V19.4586V19.4594V19.4602V19.4609V19.4617V19.4625V19.4633V19.4641V19.4648V19.4656V19.4664V19.4672V19.468V19.4688V19.4695V19.4703V19.4711V19.4719V19.4727V19.4734V19.4742V19.475V19.4758V19.4766V19.4773V19.4781V19.4789V19.4797V19.4805V19.4812V19.482V19.4828V19.4836V19.4844V19.4852V19.4859V19.4867V19.4875V19.4883V19.4891V19.4898V19.4906V19.4914V19.4922V19.493V19.4937V19.4945V19.4953V19.4961V19.4969V19.4977V19.4984V19.4992V19.5V19.5008V19.5016V19.5023V19.5031V19.5039V19.5047V19.5055V19.5062V19.507V19.5078V19.5086V19.5094V19.5102V19.5109V19.5117V19.5125V19.5133V19.5141V19.5148V19.5156V19.5164V19.5172V19.518V19.5187V19.5195V19.5203V19.5211V19.5219V19.5227V19.5234V19.5242V19.525V19.5258V19.5266V19.5273V19.5281V19.5289V19.5297V19.5305V19.5312V19.532V19.5328V19.5336V19.5344V19.5352V19.5359V19.5367V19.5375V19.5383V19.5391V19.5398V19.5406V19.5414V19.5422V19.543V19.5437V19.5445V19.5453V19.5461V19.5469V19.5477V19.5484V19.5492V19.55V19.5508V19.5516V19.5523V19.5531V19.5539V19.5547V19.5555V19.5562V19.557V19.5578V19.5586V19.5594V19.5602V19.5609V19.5617V19.5625V19.5633V19.5641V19.5648V19.5656V19.5664V19.5672V19.568V19.5687V19.5695V19.5703V19.5711V19.5719V19.5727V19.5734V19.5742V19.575V19.5758V19.5766V19.5773V19.5781V19.5789V19.5797V19.5805V19.5812V19.582V19.5828V19.5836V19.5844V19.5852V19.5859V19.5867V19.5875V19.5883V19.5891V19.5898V19.5906V19.5914V19.5922V19.593V19.5938V19.5945V19.5953V19.5961V19.5969V19.5977V19.5984V19.5992V19.6C27.8333 23.7197 24.7319 28.4333 19 28.4333C17.9841 28.4333 16.9898 28.2535 16.0576 27.9204C17.216 27.71 18.2732 27.2166 19.1704 26.5305L20.3436 25.6333H18.8667C17.9039 25.6333 17.0822 25.1619 16.6039 24.4263C16.9064 24.4055 17.1589 24.3424 17.3747 24.2884L17.3879 24.2851L17.3561 23.3081C16.3587 23.1267 15.5323 22.3477 15.2611 21.3268C15.5464 21.399 15.8431 21.4333 16.1333 21.4333H17.734L16.4179 20.5222C15.6717 20.0056 15.1667 19.1524 15.1667 18.2C15.1667 17.9324 15.1968 17.6852 15.2647 17.4469C16.9307 19.2171 19.2499 20.3728 21.9096 20.4994L22.6384 20.5341L22.4077 19.8419C22.3723 19.7357 22.3667 19.5617 22.3667 19.2667C22.3667 17.7428 23.6095 16.5 25.1333 16.5C25.9227 16.5 26.655 16.8382 27.1617 17.4011L27.3483 17.6085L27.6228 17.5586C27.809 17.5247 27.991 17.483 28.1697 17.4335C28.0756 17.5086 27.9775 17.5771 27.8761 17.6379L28.1831 18.5642Z" fill="#2F125C" stroke="#2F125C"/>
</svg>
